<svg xmlns="http://www.w3.org/2000/svg" viewBox="0 0 64 64" role="img" aria-label="Split portfolio tabs">
  <defs>
    <linearGradient id="left" x1="7" y1="12" x2="30" y2="54" gradientUnits="userSpaceOnUse">
      <stop stop-color="#172033" />
      <stop offset="1" stop-color="#263752" />
    </linearGradient>
    <linearGradient id="right" x1="34" y1="12" x2="57" y2="54" gradientUnits="userSpaceOnUse">
      <stop stop-color="#40E1B1" />
      <stop offset="1" stop-color="#19B986" />
    </linearGradient>
  </defs>
  <path d="M8 20h5v-6a3 3 0 0 1 3-3h9a3 3 0 0 1 3 3v6h2v31a3 3 0 0 1-3 3H8a3 3 0 0 1-3-3V23a3 3 0 0 1 3-3Z" fill="url(#left)" />
  <path d="M36 20h2v-6a3 3 0 0 1 3-3h9a3 3 0 0 1 3 3v6h3a3 3 0 0 1 3 3v28a3 3 0 0 1-3 3H37a3 3 0 0 1-3-3V20h2Z" fill="url(#right)" />
  <path d="M26 35h12" stroke="#F8FAFC" stroke-width="3" stroke-linecap="round" />
  <path d="m28.5 31.5-3.5 3.5 3.5 3.5M35.5 31.5 39 35l-3.5 3.5" fill="none" stroke="#F8FAFC" stroke-width="3" stroke-linecap="round" stroke-linejoin="round" />
</svg>
